<svg width="50" height="84" viewBox="0 0 50 84" fill="none" xmlns="http://www.w3.org/2000/svg">
<path d="M6.75348 62.144C6.75348 62.568 6.65348 62.968 6.45348 63.344C6.25348 63.72 5.93348 64.028 5.49348 64.268C5.05348 64.5 4.48948 64.616 3.80148 64.616H2.28948V68H0.921484V59.66H3.80148C4.44148 59.66 4.98148 59.772 5.42148 59.996C5.86948 60.212 6.20148 60.508 6.41748 60.884C6.64148 61.26 6.75348 61.68 6.75348 62.144ZM3.80148 63.5C4.32148 63.5 4.70948 63.384 4.96548 63.152C5.22148 62.912 5.34948 62.576 5.34948 62.144C5.34948 61.232 4.83348 60.776 3.80148 60.776H2.28948V63.5H3.80148ZM7.6022 64.664C7.6022 64 7.7382 63.412 8.0102 62.9C8.2902 62.388 8.6662 61.992 9.1382 61.712C9.6182 61.424 10.1462 61.28 10.7222 61.28C11.2422 61.28 11.6942 61.384 12.0782 61.592C12.4702 61.792 12.7822 62.044 13.0142 62.348V61.388H14.3942V68H13.0142V67.016C12.7822 67.328 12.4662 67.588 12.0662 67.796C11.6662 68.004 11.2102 68.108 10.6982 68.108C10.1302 68.108 9.6102 67.964 9.1382 67.676C8.6662 67.38 8.2902 66.972 8.0102 66.452C7.7382 65.924 7.6022 65.328 7.6022 64.664ZM13.0142 64.688C13.0142 64.232 12.9182 63.836 12.7262 63.5C12.5422 63.164 12.2982 62.908 11.9942 62.732C11.6902 62.556 11.3622 62.468 11.0102 62.468C10.6582 62.468 10.3302 62.556 10.0262 62.732C9.7222 62.9 9.4742 63.152 9.2822 63.488C9.0982 63.816 9.0062 64.208 9.0062 64.664C9.0062 65.12 9.0982 65.52 9.2822 65.864C9.4742 66.208 9.7222 66.472 10.0262 66.656C10.3382 66.832 10.6662 66.92 11.0102 66.92C11.3622 66.92 11.6902 66.832 11.9942 66.656C12.2982 66.48 12.5422 66.224 12.7262 65.888C12.9182 65.544 13.0142 65.144 13.0142 64.688ZM17.559 62.36C17.791 62.056 18.107 61.8 18.507 61.592C18.907 61.384 19.359 61.28 19.863 61.28C20.439 61.28 20.963 61.424 21.435 61.712C21.915 61.992 22.291 62.388 22.563 62.9C22.835 63.412 22.971 64 22.971 64.664C22.971 65.328 22.835 65.924 22.563 66.452C22.291 66.972 21.915 67.38 21.435 67.676C20.963 67.964 20.439 68.108 19.863 68.108C19.359 68.108 18.911 68.008 18.519 67.808C18.127 67.6 17.807 67.344 17.559 67.04V71.144H16.191V61.388H17.559V62.36ZM21.579 64.664C21.579 64.208 21.483 63.816 21.291 63.488C21.107 63.152 20.859 62.9 20.547 62.732C20.243 62.556 19.915 62.468 19.563 62.468C19.219 62.468 18.891 62.556 18.579 62.732C18.275 62.908 18.027 63.164 17.835 63.5C17.651 63.836 17.559 64.232 17.559 64.688C17.559 65.144 17.651 65.544 17.835 65.888C18.027 66.224 18.275 66.48 18.579 66.656C18.891 66.832 19.219 66.92 19.563 66.92C19.915 66.92 20.243 66.832 20.547 66.656C20.859 66.472 21.107 66.208 21.291 65.864C21.483 65.52 21.579 65.12 21.579 64.664ZM25.6918 62.36C25.9238 62.056 26.2398 61.8 26.6398 61.592C27.0398 61.384 27.4918 61.28 27.9958 61.28C28.5718 61.28 29.0958 61.424 29.5678 61.712C30.0478 61.992 30.4238 62.388 30.6958 62.9C30.9678 63.412 31.1038 64 31.1038 64.664C31.1038 65.328 30.9678 65.924 30.6958 66.452C30.4238 66.972 30.0478 67.38 29.5678 67.676C29.0958 67.964 28.5718 68.108 27.9958 68.108C27.4918 68.108 27.0438 68.008 26.6518 67.808C26.2598 67.6 25.9398 67.344 25.6918 67.04V71.144H24.3238V61.388H25.6918V62.36ZM29.7118 64.664C29.7118 64.208 29.6158 63.816 29.4238 63.488C29.2398 63.152 28.9918 62.9 28.6798 62.732C28.3758 62.556 28.0478 62.468 27.6958 62.468C27.3518 62.468 27.0238 62.556 26.7118 62.732C26.4078 62.908 26.1598 63.164 25.9678 63.5C25.7838 63.836 25.6918 64.232 25.6918 64.688C25.6918 65.144 25.7838 65.544 25.9678 65.888C26.1598 66.224 26.4078 66.48 26.7118 66.656C27.0238 66.832 27.3518 66.92 27.6958 66.92C28.0478 66.92 28.3758 66.832 28.6798 66.656C28.9918 66.472 29.2398 66.208 29.4238 65.864C29.6158 65.52 29.7118 65.12 29.7118 64.664ZM38.5166 64.532C38.5166 64.78 38.5006 65.004 38.4686 65.204H33.4166C33.4566 65.732 33.6526 66.156 34.0046 66.476C34.3566 66.796 34.7886 66.956 35.3006 66.956C36.0366 66.956 36.5566 66.648 36.8606 66.032H38.3366C38.1366 66.64 37.7726 67.14 37.2446 67.532C36.7246 67.916 36.0766 68.108 35.3006 68.108C34.6686 68.108 34.1006 67.968 33.5966 67.688C33.1006 67.4 32.7086 67 32.4206 66.488C32.1406 65.968 32.0006 65.368 32.0006 64.688C32.0006 64.008 32.1366 63.412 32.4086 62.9C32.6886 62.38 33.0766 61.98 33.5726 61.7C34.0766 61.42 34.6526 61.28 35.3006 61.28C35.9246 61.28 36.4806 61.416 36.9686 61.688C37.4566 61.96 37.8366 62.344 38.1086 62.84C38.3806 63.328 38.5166 63.892 38.5166 64.532ZM37.0886 64.1C37.0806 63.596 36.9006 63.192 36.5486 62.888C36.1966 62.584 35.7606 62.432 35.2406 62.432C34.7686 62.432 34.3646 62.584 34.0286 62.888C33.6926 63.184 33.4926 63.588 33.4286 64.1H37.0886ZM41.2309 62.348C41.4309 62.012 41.6949 61.752 42.0229 61.568C42.3589 61.376 42.7549 61.28 43.2109 61.28V62.696H42.8629C42.3269 62.696 41.9189 62.832 41.6389 63.104C41.3669 63.376 41.2309 63.848 41.2309 64.52V68H39.8629V61.388H41.2309V62.348ZM46.8684 68.108C46.3484 68.108 45.8804 68.016 45.4644 67.832C45.0564 67.64 44.7324 67.384 44.4924 67.064C44.2524 66.736 44.1244 66.372 44.1084 65.972H45.5244C45.5484 66.252 45.6804 66.488 45.9204 66.68C46.1684 66.864 46.4764 66.956 46.8444 66.956C47.2284 66.956 47.5244 66.884 47.7324 66.74C47.9484 66.588 48.0564 66.396 48.0564 66.164C48.0564 65.916 47.9364 65.732 47.6964 65.612C47.4644 65.492 47.0924 65.36 46.5804 65.216C46.0844 65.08 45.6804 64.948 45.3684 64.82C45.0564 64.692 44.7844 64.496 44.5524 64.232C44.3284 63.968 44.2164 63.62 44.2164 63.188C44.2164 62.836 44.3204 62.516 44.5284 62.228C44.7364 61.932 45.0324 61.7 45.4164 61.532C45.8084 61.364 46.2564 61.28 46.7604 61.28C47.5124 61.28 48.1164 61.472 48.5724 61.856C49.0364 62.232 49.2844 62.748 49.3164 63.404H47.9484C47.9244 63.108 47.8044 62.872 47.5884 62.696C47.3724 62.52 47.0804 62.432 46.7124 62.432C46.3524 62.432 46.0764 62.5 45.8844 62.636C45.6924 62.772 45.5964 62.952 45.5964 63.176C45.5964 63.352 45.6604 63.5 45.7884 63.62C45.9164 63.74 46.0724 63.836 46.2564 63.908C46.4404 63.972 46.7124 64.056 47.0724 64.16C47.5524 64.288 47.9444 64.42 48.2484 64.556C48.5604 64.684 48.8284 64.876 49.0524 65.132C49.2764 65.388 49.3924 65.728 49.4004 66.152C49.4004 66.528 49.2964 66.864 49.0884 67.16C48.8804 67.456 48.5844 67.688 48.2004 67.856C47.8244 68.024 47.3804 68.108 46.8684 68.108ZM11.2458 81.488C10.7338 80.9867 10.3338 80.3493 10.0458 79.576C9.76315 78.8027 9.62181 77.968 9.62181 77.072C9.62181 76.1547 9.77115 75.2987 10.0698 74.504C10.3738 73.704 10.8058 73.0453 11.3658 72.528H12.1258V72.6C11.5285 73.16 11.0778 73.8347 10.7738 74.624C10.4751 75.408 10.3258 76.224 10.3258 77.072C10.3258 77.8987 10.4671 78.688 10.7498 79.44C11.0378 80.192 11.4565 80.8507 12.0058 81.416V81.488H11.2458ZM16.3026 78.76H13.8706L13.4226 80H12.6546L14.6706 74.456H15.5106L17.5186 80H16.7506L16.3026 78.76ZM16.0946 78.168L15.0866 75.352L14.0786 78.168H16.0946ZM19.1253 74.08V80H18.3973V74.08H19.1253ZM24.366 77.64C24.366 77.7787 24.358 77.9253 24.342 78.08H20.838C20.8647 78.512 21.0113 78.8507 21.278 79.096C21.55 79.336 21.878 79.456 22.262 79.456C22.5767 79.456 22.838 79.384 23.046 79.24C23.2593 79.0907 23.4087 78.8933 23.494 78.648H24.278C24.1607 79.0693 23.926 79.4133 23.574 79.68C23.222 79.9413 22.7847 80.072 22.262 80.072C21.846 80.072 21.4727 79.9787 21.142 79.792C20.8167 79.6053 20.5607 79.3413 20.374 79C20.1873 78.6533 20.094 78.2533 20.094 77.8C20.094 77.3467 20.1847 76.9493 20.366 76.608C20.5473 76.2667 20.8007 76.0053 21.126 75.824C21.4567 75.6373 21.8353 75.544 22.262 75.544C22.678 75.544 23.046 75.6347 23.366 75.816C23.686 75.9973 23.9313 76.248 24.102 76.568C24.278 76.8827 24.366 77.24 24.366 77.64ZM23.614 77.488C23.614 77.2107 23.5527 76.9733 23.43 76.776C23.3073 76.5733 23.1393 76.4213 22.926 76.32C22.718 76.2133 22.486 76.16 22.23 76.16C21.862 76.16 21.5473 76.2773 21.286 76.512C21.03 76.7467 20.8833 77.072 20.846 77.488H23.614ZM26.0549 76.328C26.1829 76.0773 26.3643 75.8827 26.5989 75.744C26.8389 75.6053 27.1296 75.536 27.4709 75.536V76.288H27.2789C26.4629 76.288 26.0549 76.7307 26.0549 77.616V80H25.3269V75.616H26.0549V76.328ZM30.1193 75.544C30.498 75.544 30.8286 75.6267 31.1113 75.792C31.3993 75.9573 31.6126 76.1653 31.7513 76.416V75.616H32.4873V80.096C32.4873 80.496 32.402 80.8507 32.2313 81.16C32.0606 81.4747 31.8153 81.72 31.4953 81.896C31.1806 82.072 30.8126 82.16 30.3913 82.16C29.8153 82.16 29.3353 82.024 28.9513 81.752C28.5673 81.48 28.3406 81.1093 28.2713 80.64H28.9913C29.0713 80.9067 29.2366 81.12 29.4873 81.28C29.738 81.4453 30.0393 81.528 30.3913 81.528C30.7913 81.528 31.1166 81.4027 31.3673 81.152C31.6233 80.9013 31.7513 80.5493 31.7513 80.096V79.176C31.6073 79.432 31.394 79.6453 31.1113 79.816C30.8286 79.9867 30.498 80.072 30.1193 80.072C29.73 80.072 29.3753 79.976 29.0553 79.784C28.7406 79.592 28.4926 79.3227 28.3113 78.976C28.13 78.6293 28.0393 78.2347 28.0393 77.792C28.0393 77.344 28.13 76.952 28.3113 76.616C28.4926 76.2747 28.7406 76.0107 29.0553 75.824C29.3753 75.6373 29.73 75.544 30.1193 75.544ZM31.7513 77.8C31.7513 77.4693 31.6846 77.1813 31.5513 76.936C31.418 76.6907 31.2366 76.504 31.0073 76.376C30.7833 76.2427 30.5353 76.176 30.2633 76.176C29.9913 76.176 29.7433 76.24 29.5193 76.368C29.2953 76.496 29.1166 76.6827 28.9833 76.928C28.85 77.1733 28.7833 77.4613 28.7833 77.792C28.7833 78.128 28.85 78.4213 28.9833 78.672C29.1166 78.9173 29.2953 79.1067 29.5193 79.24C29.7433 79.368 29.9913 79.432 30.2633 79.432C30.5353 79.432 30.7833 79.368 31.0073 79.24C31.2366 79.1067 31.418 78.9173 31.5513 78.672C31.6846 78.4213 31.7513 78.1307 31.7513 77.8ZM37.4936 75.616L34.8536 82.064H34.1016L34.9656 79.952L33.1976 75.616H34.0056L35.3816 79.168L36.7416 75.616H37.4936ZM37.9934 81.488V81.416C38.5427 80.8507 38.9587 80.192 39.2414 79.44C39.5294 78.688 39.6734 77.8987 39.6734 77.072C39.6734 76.224 39.5214 75.408 39.2174 74.624C38.9187 73.8347 38.4707 73.16 37.8734 72.6V72.528H38.6334C39.1934 73.0453 39.6227 73.704 39.9214 74.504C40.2254 75.2987 40.3774 76.1547 40.3774 77.072C40.3774 77.968 40.2334 78.8027 39.9454 79.576C39.6627 80.3493 39.2654 80.9867 38.7534 81.488H37.9934Z" fill="#747783"/>
<rect width="50" height="50" rx="25" fill="#FFEBE4"/>
<path d="M25.7174 28.5489C25.7088 28.3532 25.5508 28.1936 25.3548 28.1936C25.1589 28.1936 24.9992 28.3531 25.0072 28.5489C25.1147 31.1657 26.4229 33.0155 28.8115 33.929C28.9944 33.999 29.1961 33.8978 29.258 33.712C29.32 33.5261 29.2185 33.3259 29.0357 33.2552C26.9342 32.4422 25.8196 30.8614 25.7174 28.5489Z" fill="#FB6D3A"/>
<path d="M21.2362 23.8303C21.2642 23.6364 21.137 23.4517 20.9443 23.4164C20.7515 23.3811 20.5662 23.5087 20.5377 23.7026C20.4377 24.3837 20.387 25.1763 20.387 26.0646C20.387 27.062 20.5515 27.9594 20.8766 28.7383C20.9521 28.9192 21.1662 28.9904 21.3418 28.9031C21.5172 28.8158 21.5875 28.6032 21.5138 28.4216C21.2369 27.7398 21.0966 26.9487 21.0966 26.0646C21.0966 25.2208 21.1437 24.4714 21.2362 23.8303Z" fill="#FB6D3A"/>
<path d="M34.3844 29.2208C35.4865 28.6694 36 27.5538 36 25.7097C36 23.0622 33.5353 21.8586 32.7798 21.5517C32.7263 21.2692 32.5868 20.9981 32.3842 20.7419H32.8065C34.1761 20.7419 35.2903 19.6277 35.2903 18.2581V17.9032H33.5161C32.3799 17.9032 31.4254 18.6587 31.1295 19.704C30.1562 19.1228 28.9706 18.7293 28.1747 18.6353C28.0335 17.2588 27.0694 16.277 27.0251 16.2326L26.9211 16.129H25L25.0007 17.3827L25.1568 17.4881C25.1661 17.4945 26.0645 18.1108 26.0645 18.9677C26.0645 19.1675 25.9144 19.352 25.6951 19.5422C25.6224 18.9138 25.0646 18.4412 24.5174 17.9855C24.0568 17.6016 23.5806 17.2049 23.5806 16.8387C23.5806 15.2902 22.4601 14.1515 22.4122 14.104L22.3082 14H20.3871L20.3878 15.2536L20.5439 15.359C20.5507 15.3636 21.0524 15.7082 21.3068 16.239C20.5631 16.4044 19.6508 16.7532 18.873 17.223C18.5781 16.1762 17.6229 15.4194 16.4856 15.4194H14.7115V15.7742C14.7115 17.1439 15.8256 18.2581 17.1953 18.2581H17.6293C17.4235 18.5153 17.2801 18.7861 17.2244 19.066C16.4732 19.3705 14 20.5741 14 23.2258C14 25.0699 14.5135 26.1855 15.6156 26.7369L16.129 26.9935V26.4194C16.129 25.3499 16.5534 24.4049 16.8476 23.8787L17.4934 24.8471L17.7993 24.5408C17.8472 24.4936 18.9677 23.355 18.9677 21.8065C18.9677 20.3034 18.2666 19.484 17.9259 19.1743C18.1211 18.2659 20.0347 17.2503 21.4364 16.9363C21.3633 17.2748 20.9346 17.6353 20.5145 17.9855C19.9286 18.4738 19.3226 18.9791 19.3226 19.6774V21.2341L19.7895 21.0787C19.802 21.0744 19.8222 21.0677 19.8438 21.0599C19.357 22.0261 18.9677 23.521 18.9677 26.0645C18.9677 31.6181 23.1559 33.2088 25.7274 33.662C27.9892 35.7633 31.4126 36 32.8065 36H33.6737C34.174 36 34.5806 35.5934 34.5806 35.0742C34.5806 34.6424 34.2744 34.2755 33.8362 34.1822C32.276 33.8507 29.9677 31.6053 29.9677 27.8387C29.9677 24.9386 29.8006 24.0505 29.5817 23.1066C29.714 23.1591 29.8137 23.1939 29.8553 23.2077L30.3226 23.3631V21.8065C30.3226 20.8675 29.5895 20.3222 29.0005 19.8839C28.7638 19.7079 28.5473 19.5451 28.3972 19.3818C29.7942 19.6426 31.8665 20.7281 32.0734 21.6588C31.7327 21.9686 31.0323 22.7876 31.0323 24.2903C31.0323 25.8388 32.1528 26.9775 32.2007 27.0251L32.5066 27.3313L33.1531 26.3619C33.4473 26.886 33.871 27.8288 33.871 28.9032V29.4774L34.3844 29.2208ZM33.5161 18.6129H34.5448C34.3802 19.4216 33.663 20.0323 32.8065 20.0323H31.7771C31.9406 19.2168 32.6567 18.6129 33.5161 18.6129ZM15.4566 16.129H16.4853C17.3447 16.129 18.0608 16.733 18.2244 17.5484H17.195C16.3384 17.5484 15.6216 16.9377 15.4566 16.129ZM18.2581 21.8065C18.2581 22.6123 17.8621 23.3039 17.5785 23.696L16.8557 22.6116L16.5548 23.0129C16.5137 23.0675 15.661 24.2215 15.4609 25.7775C15.0542 25.3903 14.7097 24.6831 14.7097 23.2258C14.7097 21.0514 16.8444 19.9954 17.4827 19.7285C17.734 19.9677 18.2581 20.6099 18.2581 21.8065ZM20.0323 19.6774C20.0323 19.3112 20.5085 18.9145 20.969 18.5306C21.5552 18.0423 22.1613 17.537 22.1613 16.8387C22.1613 15.8583 21.4285 15.1554 21.0968 14.8875V14.7097H22.0045C22.2461 14.9918 22.871 15.8193 22.871 16.8387C22.871 17.537 23.477 18.0423 24.0632 18.5306C24.5238 18.9145 25 19.3112 25 19.6774V20.0791C24.9635 20.1075 24.9269 20.1373 24.8904 20.1667C24.0756 19.7849 23.5806 19.3385 23.5806 18.9677H22.871C22.871 19.186 22.9348 19.3882 23.0392 19.5752C22.8295 20.16 22.6112 20.3871 22.5161 20.3871C22.421 20.3871 22.2028 20.1596 21.9927 19.5738C22.0964 19.3875 22.1613 19.186 22.1613 18.9677H21.4516C21.4516 19.4461 20.6671 19.9329 20.0323 20.2196V19.6774ZM19.6774 26.0645C19.6774 22.5183 20.4421 21.189 21.1205 20.4375C21.2423 20.358 21.3618 20.2725 21.474 20.1788C21.7557 20.7852 22.1042 21.0968 22.5161 21.0968C22.9285 21.0968 23.2776 20.7845 23.559 20.1763C23.8017 20.3786 24.0803 20.5503 24.3506 20.6915C24.1079 20.9935 23.9355 21.3537 23.9355 21.8065V23.3631L24.4025 23.2077C24.4149 23.2035 24.4351 23.1967 24.4567 23.1889C23.9699 24.1551 23.5806 25.6501 23.5806 28.1935C23.5806 30.1746 24.1111 31.6536 24.923 32.7603C22.3334 32.0812 19.6774 30.3432 19.6774 26.0645ZM28.8475 23.0839C29.0771 24.0611 29.2581 24.8332 29.2581 27.8387C29.2581 32.0435 31.8487 34.4855 33.6886 34.8762C33.7794 34.8957 33.871 34.9646 33.871 35.093C33.871 35.2016 33.7823 35.2903 33.6737 35.2903H32.8065C30.2459 35.2903 24.2903 34.5987 24.2903 28.1935C24.2903 24.6473 25.055 23.3181 25.7335 22.5665C25.8552 22.487 25.9747 22.4015 26.0869 22.3078C26.3686 22.9143 26.7171 23.2258 27.129 23.2258C27.541 23.2258 27.8895 22.9143 28.1712 22.3078C28.3561 22.4622 28.5608 22.597 28.7624 22.7134C28.7911 22.8415 28.8198 22.9654 28.8475 23.0839ZM28.5771 20.4535C29.1097 20.8498 29.6129 21.2242 29.6129 21.8065V22.3486C28.9781 22.0619 28.1935 21.5751 28.1935 21.0968H27.4839C27.4839 21.315 27.5488 21.5165 27.6524 21.7028C27.4424 22.2887 27.2245 22.5161 27.129 22.5161C27.0339 22.5161 26.8157 22.2887 26.6056 21.7028C26.7093 21.5165 26.7742 21.315 26.7742 21.0968H26.0645C26.0645 21.5751 25.28 22.0619 24.6452 22.3486V21.8065C24.6452 21.2242 25.1483 20.8498 25.6809 20.4535C26.2185 20.0535 26.7742 19.6402 26.7742 18.9677C26.7742 17.9873 26.0415 17.2844 25.7097 17.0165V16.8387H26.6174C26.859 17.1208 27.4839 17.9483 27.4839 18.9677C27.4839 19.6402 28.0395 20.0535 28.5771 20.4535ZM33.4452 25.4968L33.1443 25.0955L32.4207 26.1809C32.1372 25.7909 31.7419 25.1011 31.7419 24.2903C31.7419 23.0942 32.2646 22.4526 32.518 22.212C33.1567 22.4775 35.2903 23.5274 35.2903 25.7097C35.2903 27.167 34.9458 27.8742 34.5388 28.2613C34.339 26.7054 33.4863 25.5514 33.4452 25.4968Z" fill="#FB6D3A"/>
</svg>
